<svg id="Layer_1" data-name="Layer 1" xmlns="http://www.w3.org/2000/svg" viewBox="0 0 1080 1080"><defs><style>.cls-1{fill:#fefefe;}</style></defs><path class="cls-1" d="M303.5,354.49,302,358.58q-9.47,27-20.85,41.11-9.78,12.87-38.79,29.71,26.88-30.37,33.34-43.5,7.71-13.5,9.14-36.38l18.69,5"/><path class="cls-1" d="M371.33,344.22l-4.83-3.66q-31.65-24.69-51-32.32a73,73,0,0,0-21.2-4.75,146.5,146.5,0,0,0-25.75.94q27.36,3.88,40.12,11.83,12.93,6.87,37,32.62l25.62-4.66"/><path class="cls-1" d="M391.64,178.68l-19.26,15q-11.6,2.1-18.8,2.66a63.09,63.09,0,0,1-14-.3,52.12,52.12,0,0,1-5.15-1,68.08,68.08,0,0,1-7.53-2.42,167.56,167.56,0,0,1-17-8q15.18,2.59,20.46,3,6.57.51,7.93.48c3.47.09,6.75,0,9.86-.21,2.28-.17,4.58-.41,6.92-.73,1.13-.09,4.71-.72,10.71-1.88s14.66-3.41,25.89-6.52"/><path class="cls-1" d="M378.88,504.44a28.38,28.38,0,0,1-7.42-5.48,26.09,26.09,0,0,1-3.12-4.24,21.71,21.71,0,0,1-1.86-3.94,11.85,11.85,0,0,1-.75-3.81,8,8,0,0,1,.42-2.51,10.46,10.46,0,0,1,1.6-2.9,25.28,25.28,0,0,1,2.27-2.63l.61-.64L371,478h0a11.45,11.45,0,0,1,1.86,4.08,41.83,41.83,0,0,1,.61,9.19,45.42,45.42,0,0,0,1.47-6,14.38,14.38,0,0,0,.05-4.29,20.93,20.93,0,0,0-1.48-5,34.19,34.19,0,0,1,4.69,3.88,12.64,12.64,0,0,1,1.19,1.48l.47.8a7.52,7.52,0,0,1,.68,1.72,10.13,10.13,0,0,1,0,4.08,27.61,27.61,0,0,1-.79,3.35l-1.63,5.29-.22.92a12,12,0,0,0-.27,1.61,8.57,8.57,0,0,0,1.21,5.36Zm0,0"/><path class="cls-1" d="M340.47,222.37a43.7,43.7,0,0,0,3.45,14.08,40,40,0,0,0,4.23,7.1,36.23,36.23,0,0,0,4.57,5.1,18.51,18.51,0,0,0,5.09,3.39,11.85,11.85,0,0,0,3.89.92,17,17,0,0,0,5.18-.54,45.52,45.52,0,0,0,5.19-1.7l1.3-.5.66-.36a17.73,17.73,0,0,0-4.78-5.17q-3-2.34-12.94-6.47a69.16,69.16,0,0,1,9.64,1.55,22.12,22.12,0,0,1,6.26,2.54,31.72,31.72,0,0,1,6.3,5.16,51.53,51.53,0,0,0-2.78-9.16,17.29,17.29,0,0,0-1.42-2.62l-.86-1.18a11.83,11.83,0,0,0-2.1-2,15.65,15.65,0,0,0-5.87-2.55,42.94,42.94,0,0,0-5.35-.89l-8.66-.85L350,228a19.65,19.65,0,0,1-2.5-.59q-3.72-.91-7-5Zm0,0"/><path class="cls-1" d="M145.31,428.39a44.63,44.63,0,0,0,9.48,11.27,41,41,0,0,0,7.05,4.56,34.82,34.82,0,0,0,6.46,2.58,19,19,0,0,0,6.16.81,12.23,12.23,0,0,0,4-.91,17.36,17.36,0,0,0,4.48-2.83,46.75,46.75,0,0,0,4-3.89l.95-1,.45-.61a18.23,18.23,0,0,0-6.68-2.57q-3.78-.78-14.71-.07h0a70.32,70.32,0,0,1,9.48-2.93,22.45,22.45,0,0,1,6.83-.5,33,33,0,0,1,8.08,1.86,54.57,54.57,0,0,0-6.66-7.09,19.57,19.57,0,0,0-2.48-1.75l-1.32-.68a12.21,12.21,0,0,0-2.82-.9,15.76,15.76,0,0,0-6.49.33,41.33,41.33,0,0,0-5.27,1.59L158,428.74l-1.43.45a19.76,19.76,0,0,1-2.55.58q-3.78.84-8.66-1.38Zm0,0"/><path class="cls-1" d="M188.48,491.08a39.69,39.69,0,0,0,9.92-8.39,36,36,0,0,0,4-6.24,31.73,31.73,0,0,0,2.26-5.7,16.92,16.92,0,0,0,.7-5.44,11,11,0,0,0-.82-3.49,15.52,15.52,0,0,0-2.5-3.94,41.76,41.76,0,0,0-3.44-3.48l-.92-.85-.55-.39a16,16,0,0,0-2.24,5.9q-.69,3.35,0,13a60.77,60.77,0,0,1-2.61-8.35,19.45,19.45,0,0,1-.46-6,29.44,29.44,0,0,1,1.62-7.13,48.29,48.29,0,0,0-6.24,5.9,17,17,0,0,0-1.54,2.19l-.59,1.16a10.18,10.18,0,0,0-.79,2.49,14.15,14.15,0,0,0,.3,5.73,38,38,0,0,0,1.42,4.64l2.78,7.29.4,1.27a17.31,17.31,0,0,1,.52,2.24,12.21,12.21,0,0,1-1.2,7.65Zm0,0"/><path class="cls-1" d="M403.54,465.74a28.93,28.93,0,0,1-8.93,3.82,27.06,27.06,0,0,1-5.51.59,23.73,23.73,0,0,1-4.58-.4,12.64,12.64,0,0,1-3.86-1.36,8,8,0,0,1-2.06-1.72,11.61,11.61,0,0,1-1.8-3,31.4,31.4,0,0,1-1.17-3.47l-.25-.9-.09-.49h0a11.79,11.79,0,0,1,4.71.47c1.63.44,4.53,1.89,8.67,4.34a45.18,45.18,0,0,0-4.71-4.55,14.94,14.94,0,0,0-3.87-2.33,21.93,21.93,0,0,0-5.31-1.31,36.05,36.05,0,0,1,6-2.19,12.48,12.48,0,0,1,2-.3h1a7.55,7.55,0,0,1,1.93.31,10.52,10.52,0,0,1,3.72,2.12,26.77,26.77,0,0,1,2.63,2.51l3.95,4.3.7.7c.47.42.91.79,1.33,1.1a9,9,0,0,0,5.51,1.75Zm0,0"/><path class="cls-1" d="M273.39,177.1a33.14,33.14,0,0,0,6.63,8.75,29.5,29.5,0,0,0,5.08,3.65,26.2,26.2,0,0,0,4.71,2.17,14,14,0,0,0,4.55.83,9.14,9.14,0,0,0,3-.53,13.06,13.06,0,0,0,3.45-1.93,34.55,34.55,0,0,0,3.09-2.75l.75-.74.36-.44A13.64,13.64,0,0,0,300.1,184c-1.85-.48-5.5-.69-10.94-.6a50.68,50.68,0,0,1,7.17-1.82,16.25,16.25,0,0,1,5.1-.12,24.52,24.52,0,0,1,5.94,1.68h0a40.11,40.11,0,0,0-4.68-5.53,14,14,0,0,0-1.79-1.4l-.95-.56a9.8,9.8,0,0,0-2.06-.77,11.93,11.93,0,0,0-4.84,0,30.43,30.43,0,0,0-4,1l-6.27,2-1.09.29a16,16,0,0,1-1.92.34,10.21,10.21,0,0,1-6.39-1.36Zm0,0"/><path class="cls-1" d="M155.71,367.23a55.81,55.81,0,0,0,15.52,9.88,52.14,52.14,0,0,0,10.11,2.79,45,45,0,0,0,8.66.65,23.53,23.53,0,0,0,7.65-1.36c.66-.09,2.12-.94,4.36-2.56a21,21,0,0,0,4.27-5.05,56.37,56.37,0,0,0,3.27-6.11l.75-1.6.3-.91h0a22.66,22.66,0,0,0-8.92-.55q-4.8.48-17.54,5.43a88.06,88.06,0,0,1,10.19-7,28.09,28.09,0,0,1,8-3.16,40.48,40.48,0,0,1,10.31-.81A66.53,66.53,0,0,0,202,350.89a23.18,23.18,0,0,0-3.6-1.16l-1.82-.32a15.27,15.27,0,0,0-3.7,0,19.78,19.78,0,0,0-7.61,2.82,53.7,53.7,0,0,0-5.69,3.87l-8.68,6.82L169.37,364a24.78,24.78,0,0,1-2.81,1.65q-4.2,2.42-10.85,1.59Zm0,0"/><path class="cls-1" d="M283.16,289.3a54.88,54.88,0,0,1-2.86-17.74,49.73,49.73,0,0,1,1.41-10.14,43.81,43.81,0,0,1,2.76-8,23.41,23.41,0,0,1,4.16-6.33q.53-.84,4-2.92a21.24,21.24,0,0,1,6.18-1.89,56.88,56.88,0,0,1,6.75-.56l1.72-.06.92.09a22.15,22.15,0,0,1-2.95,8.21q-2.3,4.11-11.65,13.63a87.43,87.43,0,0,0,10.26-6.42,27.32,27.32,0,0,0,5.9-5.91,39.93,39.93,0,0,0,4.71-8.94,66.24,66.24,0,0,1,1.25,11.79,24.54,24.54,0,0,1-.36,3.68l-.42,1.76a14.86,14.86,0,0,1-1.41,3.32,19.46,19.46,0,0,1-5.47,5.74,55,55,0,0,1-5.67,3.59l-9.48,5.16-1.55,1a25.46,25.46,0,0,0-2.58,1.89Q285,283,283.16,289.3Zm0,0"/><path class="cls-1" d="M330.21,296a43.87,43.87,0,0,1,1.06-14.35,40.64,40.64,0,0,1,3-7.65,34.36,34.36,0,0,1,3.64-5.74,18.27,18.27,0,0,1,4.42-4.16,11.62,11.62,0,0,1,3.66-1.54,16.44,16.44,0,0,1,5.16-.33,44,44,0,0,1,5.36.82l1.35.27.71.24a17.63,17.63,0,0,1-3.83,5.85c-1.7,1.86-5.57,4.67-11.6,8.47a70.16,70.16,0,0,0,9.18-3.11,22.06,22.06,0,0,0,5.71-3.51,32.39,32.39,0,0,0,5.33-6.1,54,54,0,0,1-1.22,9.43,19.22,19.22,0,0,1-1,2.8l-.66,1.3a11.34,11.34,0,0,1-1.72,2.32,15.43,15.43,0,0,1-5.33,3.46,41.69,41.69,0,0,1-5.09,1.75L340,288.44l-1.4.45a21.23,21.23,0,0,0-2.35,1c-2.32,1-4.34,3-6.07,6.05Zm0,0"/><path class="cls-1" d="M225.33,332.34a46.68,46.68,0,0,1,5-14.61,42.71,42.71,0,0,1,5.17-7.14,36.59,36.59,0,0,1,5.33-5,19.93,19.93,0,0,1,5.71-3.12,12.72,12.72,0,0,1,4.21-.61,18.16,18.16,0,0,1,5.45,1.06,48.42,48.42,0,0,1,5.35,2.3l1.33.64.67.44a19.06,19.06,0,0,1-5.56,5q-3.41,2.2-14.35,5.65a72.23,72.23,0,0,0,10.38-.74,23.22,23.22,0,0,0,6.87-2.1,34.62,34.62,0,0,0,7.19-4.88,56.12,56.12,0,0,1-3.82,9.46,20,20,0,0,1-1.76,2.65l-1,1.16a13.09,13.09,0,0,1-2.42,1.95,16.48,16.48,0,0,1-6.47,2.14,42.82,42.82,0,0,1-5.75.45l-9.27.09-1.57.09a23.24,23.24,0,0,0-2.72.4c-2.68.42-5.32,2-7.93,4.65Zm0,0"/><path class="cls-1" d="M318,388.61a29.37,29.37,0,0,0,5,8.31,27.09,27.09,0,0,0,4.12,3.69A22.08,22.08,0,0,0,331,403a12.34,12.34,0,0,0,3.92,1.16,7.56,7.56,0,0,0,2.66-.18,11.31,11.31,0,0,0,3.21-1.37,30.19,30.19,0,0,0,3-2.12l.72-.57.36-.36a12.21,12.21,0,0,0-4.08-2.36q-2.38-.9-9.55-1.56a46.93,46.93,0,0,1,6.47-.93,15.08,15.08,0,0,1,4.49.39,21.63,21.63,0,0,1,5.06,2,37,37,0,0,0-3.59-5.3,13.44,13.44,0,0,0-1.44-1.39l-.78-.58a8.36,8.36,0,0,0-1.74-.88,10.59,10.59,0,0,0-4.25-.46,28.34,28.34,0,0,0-3.59.49l-5.71,1.17-1,.14a10.75,10.75,0,0,1-1.72.12,9.07,9.07,0,0,1-5.49-1.8Zm0,0"/><path class="cls-1" d="M215.42,399.15A40,40,0,0,0,222.79,410a37,37,0,0,0,5.84,4.68,31.3,31.3,0,0,0,5.49,2.87,16.85,16.85,0,0,0,5.37,1.27,10.88,10.88,0,0,0,3.59-.45,15.28,15.28,0,0,0,4.22-2.1,39.26,39.26,0,0,0,3.87-3.08l.94-.83.45-.51a16.52,16.52,0,0,0-5.69-2.88q-3.27-1-13-1.39a61.27,61.27,0,0,1,8.66-1.73,19.68,19.68,0,0,1,6.1.17,29.28,29.28,0,0,1,7,2.39,48.56,48.56,0,0,0-5.25-6.89,17.71,17.71,0,0,0-2-1.77l-1.1-.73a10.87,10.87,0,0,0-2.42-1,14.09,14.09,0,0,0-5.78-.3,38.46,38.46,0,0,0-4.81.93l-7.61,2-1.31.27a19.51,19.51,0,0,1-2.31.28,12.16,12.16,0,0,1-7.55-2Zm0,0"/><path class="cls-1" d="M405.05,381.58a192.67,192.67,0,0,1-16.32,10.27,69.68,69.68,0,0,1-7,3.37,48.8,48.8,0,0,1-4.71,1.64,50.69,50.69,0,0,1-12.55,1.87,134.66,134.66,0,0,1-16-.73q5.07,1.74,10.25,3.06a47.87,47.87,0,0,0,8.8,1.35,36.67,36.67,0,0,0,7.07-.33,64.82,64.82,0,0,0,10.14-2.32q3.07-.88,10.38-3.46l10-14.72"/><path class="cls-1" d="M336.26,466.24a29.63,29.63,0,0,0,8.92,3.86,26.52,26.52,0,0,0,5.51.6,23,23,0,0,0,4.58-.38,12.28,12.28,0,0,0,3.87-1.35,7.93,7.93,0,0,0,2.06-1.7,11.32,11.32,0,0,0,1.81-3,28.89,28.89,0,0,0,1.19-3.47l.26-.89.08-.5a12.13,12.13,0,0,0-4.7.46q-2.46.66-8.7,4.31h0a44.71,44.71,0,0,1,4.73-4.53,15,15,0,0,1,3.88-2.32,21.61,21.61,0,0,1,5.31-1.28,35,35,0,0,0-6-2.22,11.29,11.29,0,0,0-2-.3l-1,0a8,8,0,0,0-1.93.31,10.41,10.41,0,0,0-3.73,2.1,29.87,29.87,0,0,0-2.64,2.5l-4,4.29-.71.69a11.91,11.91,0,0,1-1.34,1.09,9,9,0,0,1-5.52,1.74Zm0,0"/><path class="cls-1" d="M288.77,445.27a33.9,33.9,0,0,1-11.11-1.3,30.36,30.36,0,0,1-5.84-2.57,26.17,26.17,0,0,1-4.34-3,14.5,14.5,0,0,1-3.09-3.57,9.49,9.49,0,0,1-1.07-2.88,13.26,13.26,0,0,1-.08-4,34.2,34.2,0,0,1,.81-4.13l.25-1,.21-.54h0a13.76,13.76,0,0,1,4.42,3.16q2.08,2.07,6.19,9.3a51.76,51.76,0,0,0-2.1-7.24,17.18,17.18,0,0,0-2.54-4.55,25.3,25.3,0,0,0-4.56-4.34,41.24,41.24,0,0,1,7.28,1.26,13.87,13.87,0,0,1,2.15.83l1,.56a8.73,8.73,0,0,1,1.75,1.41,12.13,12.13,0,0,1,2.51,4.25,32.47,32.47,0,0,1,1.2,4l1.47,6.56.32,1.1a15.21,15.21,0,0,0,.69,1.86,10.54,10.54,0,0,0,4.5,4.91Zm0,0"/><path class="cls-1" d="M312.11,269.71a35.92,35.92,0,0,0-5.94,10.17,32.28,32.28,0,0,0-1.54,6.55,27.46,27.46,0,0,0-.21,5.56,15,15,0,0,0,1.05,4.85,9.73,9.73,0,0,0,1.75,2.74,13.83,13.83,0,0,0,3.33,2.62,37.79,37.79,0,0,0,4,1.94l1,.44.59.17h0a14.72,14.72,0,0,0,.14-5.73c-.29-2-1.59-5.73-3.9-11.1h0a54.86,54.86,0,0,1,4.75,6.35,17.66,17.66,0,0,1,2.21,5,26.37,26.37,0,0,1,.78,6.58A44.48,44.48,0,0,0,323.7,299a15.72,15.72,0,0,0,.65-2.34l.16-1.17a9.9,9.9,0,0,0-.07-2.37,12.86,12.86,0,0,0-2-4.8,33.28,33.28,0,0,0-2.62-3.55l-4.57-5.39-.73-1a16,16,0,0,1-1.13-1.76,11.08,11.08,0,0,1-1.28-6.9Zm0,0"/><path class="cls-1" d="M271.69,335.35a39,39,0,0,1,6-11.28,35.25,35.25,0,0,1,5.16-5.15,30.89,30.89,0,0,1,5-3.36,16.44,16.44,0,0,1,5.08-1.8,10.87,10.87,0,0,1,3.52.06,14.9,14.9,0,0,1,4.3,1.59,38.54,38.54,0,0,1,4.07,2.58l1,.7.49.45a16,16,0,0,1-5.2,3.39q-3.08,1.34-12.46,2.71h0a61.77,61.77,0,0,0,8.57.76,19.55,19.55,0,0,0,5.89-.81,28.47,28.47,0,0,0,6.51-3,46.45,46.45,0,0,1-4.37,7.22,14.92,14.92,0,0,1-1.78,1.93l-1,.82a10.21,10.21,0,0,1-2.23,1.27,13.65,13.65,0,0,1-5.57.9,36.13,36.13,0,0,1-4.76-.4l-7.58-1.14-1.3-.13a17.33,17.33,0,0,0-2.26,0,12,12,0,0,0-7.1,2.75Zm0,0"/><path class="cls-1" d="M388.37,291.39a36,36,0,0,1-9.51-6.94,33.23,33.23,0,0,1-4-5.38,29.1,29.1,0,0,1-2.41-5,15.17,15.17,0,0,1-1-4.87A9.63,9.63,0,0,1,372,266a13.63,13.63,0,0,1,2-3.73,34.73,34.73,0,0,1,2.88-3.37l.78-.82.47-.39a14.65,14.65,0,0,1,2.41,5.19q.83,3,.85,11.72h0a53.75,53.75,0,0,0,1.82-7.72,18,18,0,0,0,0-5.48,25.7,25.7,0,0,0-1.93-6.34,43.14,43.14,0,0,1,6,4.92,14.91,14.91,0,0,1,1.54,1.88l.61,1a9.82,9.82,0,0,1,.88,2.2,12.84,12.84,0,0,1,.09,5.19,35.38,35.38,0,0,1-1,4.3l-2,6.76-.28,1.17a14.79,14.79,0,0,0-.33,2.06,11,11,0,0,0,1.58,6.84Zm0,0"/><path class="cls-1" d="M500.75,69.38a86.15,86.15,0,0,0,5.12,27.84q4.28,9.94,7.46,14.31A68.37,68.37,0,0,0,521.66,122a36.46,36.46,0,0,0,9.52,7.19c.81.65,3.3,1.4,7.47,2.23a32.9,32.9,0,0,0,10.17-.46,90.85,90.85,0,0,0,10.31-2.73l2.58-.83,1.33-.61a34.92,34.92,0,0,0-8.73-10.63q-5.56-4.89-24.49-14.07,14.41,2.54,18.62,4.11a43.21,43.21,0,0,1,11.89,5.65q4.42,2.74,11.72,10.78a104.25,104.25,0,0,0-4.38-18.17,36.88,36.88,0,0,0-2.48-5.27l-1.55-2.39a23.42,23.42,0,0,0-3.85-4.18A30.53,30.53,0,0,0,548.63,87q-1.51-.66-10.32-2.35L521.54,82l-2.83-.61a41.56,41.56,0,0,1-4.81-1.44q-7.12-2.2-13.15-10.56Zm0,0"/><path class="cls-1" d="M245.55,317l-1.93.06,1.93-.06Zm0,0"/><path class="cls-1" d="M197.13,453.16c-.07.14-.15.26-.22.39l.22-.38h0l.54.38-.55-.39h0Zm0,0"/><path class="cls-1" d="M214.18,449.66A31.09,31.09,0,0,0,224.33,451a28,28,0,0,0,5.76-1,25.42,25.42,0,0,0,4.52-1.71,13.16,13.16,0,0,0,3.53-2.49,8.49,8.49,0,0,0,1.59-2.32,12.12,12.12,0,0,0,1-3.55,30.55,30.55,0,0,0,.19-3.85v-1l-.06-.53a12.67,12.67,0,0,0-4.63,1.83q-2.29,1.37-7.56,6.88h0a49.08,49.08,0,0,1,3.48-5.95,15.74,15.74,0,0,1,3.26-3.48,24,24,0,0,1,5-2.84,38.34,38.34,0,0,0-6.74-.5,13,13,0,0,0-2.09.28l-1,.26a8.28,8.28,0,0,0-1.86.87,11,11,0,0,0-3.17,3.21,32.6,32.6,0,0,0-2,3.3l-2.77,5.49-.51.9a13.91,13.91,0,0,1-1,1.5,9.59,9.59,0,0,1-5.09,3.36Zm0,0"/><path class="cls-1" d="M312.11,269.71h0a35.74,35.74,0,0,0-5.94,10.16,32.28,32.28,0,0,0-1.54,6.55,27.46,27.46,0,0,0-.21,5.56,16.89,16.89,0,0,0,.2,1.79q5.72-6.69,11.8-13.06l-1.17-1.38-.73-1a16,16,0,0,1-1.13-1.76,11.08,11.08,0,0,1-1.28-6.9Zm0,0"/><path class="cls-1" d="M391.63,178.68h0Zm0,0"/><path class="cls-1" d="M606.54,148.07h0l-68.8,64.66q7.93-.41,16-.38a307.49,307.49,0,0,1,191.44,67.22h0A301.76,301.76,0,0,1,841,412.47c11.93,33,19.12,68.68,17.36,105.83C851,674.09,731.36,644,706.13,655.56c-2.65-1.48,119,39.66,124,40.18,3.56.37,7.32.53,11.2.55,14.63,0,31-2.1,45.15-3.12a375.52,375.52,0,0,0,35.16-114.94c.26-1.86.46-3.74.73-5.61,1.56-10.82,2.77-21.77,3.38-32.88.17-3,.23-5.85.31-8.39h0c.21-6,.33-10.52.33-12.91A372.52,372.52,0,0,0,796.69,234.71h0a2.09,2.09,0,0,0-.22-.2l0,0h0A371.91,371.91,0,0,0,616.5,149.65h0c-3.3-.57-6.62-1.09-10-1.58h0Zm172.51,143.8h0q4.37,4.32,8.58,8.81-4.21-4.49-8.6-8.82Zm17.09,8.84s0,0,0,0h0l-.09,9.29Zm66,127.82v0Zm63,102.82h0Zm0,0"/><path class="cls-1" d="M796.05,310l0,0h0l-.09,9Zm0,0"/><path class="cls-1" d="M795.87,332.37l.81-97.74Q681.33,168.15,649,159.27a253.07,253.07,0,0,0-32.64-9.65L601.12,147q-25.57-2.91-43.24,3.73-16.32,3.24-41.75,34.43a290.45,290.45,0,0,0-19.88,31.53Q464.44,279,448.11,301.37a134.2,134.2,0,0,1-23.73,25.69l-13.71,9.23-14.83,6.91a156.62,156.62,0,0,1-32,8.2,291.6,291.6,0,0,1-33.41,3q-58.51.12-76.55,2.71-25.6,3.67-39.14,17.72-24.13,24.23-28.79,91Q207.77,390,233,383.08q21.36-7.38,39.76-6.34l78.58,4.87q28.86.81,40.74-.53,32.64-2,59.14-15.82,17-8.08,38.56-36.23,43.12-68.58,52.86-78.37,20.72-23.5,42.73-27.72,13.89-3.33,33.62-1.46a185.59,185.59,0,0,1,26.93,4.94,273.75,273.75,0,0,1,27.45,8.69q7.33,2,39.5,17.4,93.47,47.37,83,79.86"/><path class="cls-1" d="M506.07,153.53a243.83,243.83,0,0,0-45.19,3.67,184.65,184.65,0,0,0-27.78,7.35c-71,16.76-129,91.2-129,91.2,29.26-19.71,51.73-33.64,67.67-41.32,15.72-7.57,25.29-11.08,28.26-11.91,6.29-1.77,12.35-3.56,18.42-4.65a99.58,99.58,0,0,1,18.06-1.56,138.6,138.6,0,0,1,22.68,1.94,185.77,185.77,0,0,1,22.26,5.28l3.76,2.11c10.69-20.46,32.08-45.87,40.55-51.56h0q-10.26-.53-19.69-.55Zm0,0"/><path class="cls-1" d="M507.18,263.18q-37.06-14.9-49-16.9c-4-.93-8-1.64-11.93-2.17l-5.89-.58a80.51,80.51,0,0,0-13.56.16l-6.31.92L414.29,246,408.14,248A115.53,115.53,0,0,0,396,253Q381,260,354.8,278.53q22.05-8.59,34.46-11.57a98.8,98.8,0,0,1,28.59-3.23,90.84,90.84,0,0,1,10.79,1.2l5.43,1.08q5.43,1.25,10.91,3,13.69,4.2,38.6,15.57l23.6-21.37"/><path class="cls-1" d="M428.45,249q-26.19-6.67-34.86-11.47a51.51,51.51,0,0,1-9.61-6.4A91.32,91.32,0,0,1,374.05,221q8.15,13.62,12.81,18.05a39,39,0,0,0,4.8,4.26,51.66,51.66,0,0,0,7.34,4.57,138.06,138.06,0,0,0,14.33,6.21L428.45,249"/><path class="cls-1" d="M871.05,543.47l-1.21-11.79q-8.64-82.5-27.26-116.25-21-39.74-36.4-54.45a199.79,199.79,0,0,0-40.66-34.84q-28.6-16-35.16-16.53-20.91-6.74-47.33-5-49.46,4.25-125.62,38.9a860,860,0,0,1,80-46.07q32.76-14.54,39.05-15.35a156.83,156.83,0,0,1,25.44-5.3Q748.29,270.05,810,309q22.74,14.43,45.26,30.61l15.77,203.86"/><path class="cls-1" d="M705.69,283.92h0q-52.92-2.09-70.71-6.79c-3.09-.74-6-1.55-8.69-2.44a94.36,94.36,0,0,1-11.13-4.46,143.53,143.53,0,0,1-20.8-12.58q18.89,23,30.17,30.56,11,8.25,36.54,16.79l44.62-21.08"/><path class="cls-1" d="M467.08,319.11l-9.56,9.52Q393.14,391.41,373,424.06a111,111,0,0,0-7.12,13.69l-2.45,6.35a77,77,0,0,0-3,11.87q-2.61,14.32,1.55,36.17a120.18,120.18,0,0,1,3.49-31.3,72.73,72.73,0,0,1,4.12-11.11l3-5.76a94,94,0,0,1,8.16-12q10-12.46,26.32-26.28l50.14-41,14.4-12.72q12.92-12.24,18.64-22.22,10.27-17.57,6.61-39l-29.7,28.37"/><path class="cls-1" d="M575.18,214.65,570,221.19a303.86,303.86,0,0,0-27.68,39.88,130.3,130.3,0,0,0-6.6,13.78l-2.53,7a83.35,83.35,0,0,0-3.28,14.4,86.69,86.69,0,0,0-.64,14.89l.57,7.62a137.26,137.26,0,0,0,2.68,15.51q4.26,19.56,19.11,56.11-11.1-38.52-12.29-58.88a110.94,110.94,0,0,1,0-16.1l.92-7.85a76.31,76.31,0,0,1,4.12-15.23,85.86,85.86,0,0,1,7.4-14.54l4.83-7a153.21,153.21,0,0,1,11.56-13.67q15.58-16.86,52.61-45.3l-45.6,2.83"/><path class="cls-1" d="M504.22,399.49A47.67,47.67,0,0,0,519.74,397a43.37,43.37,0,0,0,8-4,38.91,38.91,0,0,0,5.91-4.52,20.07,20.07,0,0,0,4.1-5.21,13,13,0,0,0,1.32-4.13,18.2,18.2,0,0,0-.14-5.65,46.84,46.84,0,0,0-1.4-5.76l-.43-1.45-.32-.75a19.5,19.5,0,0,0-6,4.73q-2.79,3-8.1,13.46a76.27,76.27,0,0,1,2.49-10.31,23.87,23.87,0,0,1,3.28-6.54,34.79,34.79,0,0,1,6.13-6.4,58.5,58.5,0,0,0-10.16,2.23,20.19,20.19,0,0,0-3,1.32l-1.35.84a12.39,12.39,0,0,0-2.37,2.1,16.81,16.81,0,0,0-3.25,6.13,43.86,43.86,0,0,0-1.42,5.71l-1.66,9.3-.37,1.56a22.12,22.12,0,0,1-.86,2.67q-1.31,3.93-6,7.18Zm0,0"/><path class="cls-1" d="M583,459.92A68.69,68.69,0,0,1,563,449.18,63.42,63.42,0,0,1,554,440a55.2,55.2,0,0,1-5.9-8.91,29,29,0,0,1-3.13-9c-.3-.77-.25-2.86.14-6.24a26,26,0,0,1,2.85-7.61,70.67,70.67,0,0,1,4.6-7.18l1.27-1.77.79-.85a27.6,27.6,0,0,1,5.94,9.24q2.37,5.44,4.7,22.1,1.6-11.58,1.45-15.18a34.31,34.31,0,0,0-1.39-10.44c-.66-2.69-2.44-6.55-5.31-11.56h0a82.36,82.36,0,0,1,12.75,7.8,27.85,27.85,0,0,1,3.4,3.18l1.44,1.77a18.56,18.56,0,0,1,2.24,4,24.32,24.32,0,0,1,1.53,9.87,63.81,63.81,0,0,1-.74,8.42L578.48,441l-.24,2.3a32.62,32.62,0,0,0-.08,4q-.07,6,4.8,12.6Zm0,0"/><path class="cls-1" d="M476.94,426.2a60.77,60.77,0,0,1-15.67-12.54,55.15,55.15,0,0,1-6.44-9.47,48.71,48.71,0,0,1-3.73-8.7,26,26,0,0,1-1.3-8.37c-.14-.72.23-2.53,1.11-5.41a23.84,23.84,0,0,1,3.71-6.2,60.52,60.52,0,0,1,5.16-5.52l1.39-1.34L462,368a24.57,24.57,0,0,1,3.71,9q1.2,5.11.58,20h0q3.25-9.85,3.68-13a30.8,30.8,0,0,0,.46-9.33q-.23-3.69-2.8-10.94a73.88,73.88,0,0,1,9.88,8.84,26.5,26.5,0,0,1,2.46,3.31l1,1.77a16.76,16.76,0,0,1,1.32,3.82,21.66,21.66,0,0,1-.23,8.85,59.52,59.52,0,0,1-2,7.23l-4,11.38-.58,2a28.61,28.61,0,0,0-.71,3.5q-1,5.18,2.18,11.75Zm0,0"/><path class="cls-1" d="M444.29,198.88a53.07,53.07,0,0,0-1.14,17.46,48.74,48.74,0,0,0,2.3,9.71,43.14,43.14,0,0,0,3.41,7.52,22.94,22.94,0,0,0,4.62,5.75q.58.77,4.14,2.46a19.88,19.88,0,0,0,6.17,1.26,53.7,53.7,0,0,0,6.58-.07l1.68-.11.89-.16h0a21.66,21.66,0,0,0-3.62-7.69q-2.6-3.78-12.55-12.14a80.81,80.81,0,0,1,10.53,5.28,26.68,26.68,0,0,1,6.28,5.18,39.11,39.11,0,0,1,5.39,8.24,63.94,63.94,0,0,0,.12-11.55,22.4,22.4,0,0,0-.69-3.54l-.57-1.66a14.31,14.31,0,0,0-1.67-3.1,18.93,18.93,0,0,0-5.84-5.05,50.11,50.11,0,0,0-5.83-3l-9.65-4.12-1.6-.79a23,23,0,0,1-2.67-1.6q-3.93-2.38-6.28-8.31Zm0,0"/><path class="cls-1" d="M391,278.52a58.68,58.68,0,0,0,11.15,15.92,53,53,0,0,0,8.73,6.81,47.06,47.06,0,0,0,8.19,4.15,24.79,24.79,0,0,0,8,1.78q1,.27,5.3-.74a22.78,22.78,0,0,0,6.22-3.19,60.79,60.79,0,0,0,5.65-4.65l1.38-1.25.66-.76a24,24,0,0,0-8.48-4.15q-4.89-1.47-19.32-1.8,9.72-2.53,12.8-2.74a29.35,29.35,0,0,1,9,.13q3.56.45,10.4,3.38a71.4,71.4,0,0,0-7.93-10.09,24.61,24.61,0,0,0-3-2.59l-1.64-1.05a16.4,16.4,0,0,0-3.61-1.51,21,21,0,0,0-8.57-.33,57,57,0,0,0-7.12,1.48l-11.23,3.13-1.94.44a25.8,25.8,0,0,1-3.42.47q-5.07.66-11.22-2.84Zm0,0"/><path class="cls-1" d="M669.75,364.66a77.2,77.2,0,0,1,4.15-24.92q3.66-8.94,6.44-12.89a61,61,0,0,1,7.28-9.45,32.61,32.61,0,0,1,8.4-6.57q1.05-.88,6.62-2.1a29.51,29.51,0,0,1,9.08.26,79.43,79.43,0,0,1,9.25,2.28l2.32.7,1.19.52a30.91,30.91,0,0,1-7.62,9.62q-4.9,4.45-21.65,12.94,12.82-2.48,16.56-4a38.52,38.52,0,0,0,10.53-5.22q3.9-2.52,10.29-9.8A91.88,91.88,0,0,1,729,332.36a33.82,33.82,0,0,1-2.12,4.74l-1.35,2.15a21.31,21.31,0,0,1-3.38,3.8,27.24,27.24,0,0,1-9.87,5.18,73.26,73.26,0,0,1-9.18,2.25l-14.93,2.62-2.52.58a34.15,34.15,0,0,0-4.27,1.37q-6.32,2.07-11.58,9.61Zm0,0"/><path class="cls-1" d="M626.3,242a56.46,56.46,0,0,1,18.51-2.84,51.79,51.79,0,0,1,10.56,1.54,45.42,45.42,0,0,1,8.34,2.94,24.23,24.23,0,0,1,6.57,4.39c.58.36,1.58,1.76,3,4.18a21.9,21.9,0,0,1,1.92,6.45,55.77,55.77,0,0,1,.53,7l0,1.79-.09,1h0a23.07,23.07,0,0,1-8.54-3.15Q662.89,262.88,653,253h0a91.41,91.41,0,0,0,6.61,10.74,29.05,29.05,0,0,0,6.12,6.2,41.91,41.91,0,0,0,9.29,5,69,69,0,0,1-12.31,1.21,25.22,25.22,0,0,1-3.83-.4l-1.83-.45a15.8,15.8,0,0,1-3.46-1.51,20.22,20.22,0,0,1-5.93-5.74,55,55,0,0,1-3.71-5.94l-5.3-9.91-1-1.64a26.51,26.51,0,0,0-1.94-2.69q-2.94-4-9.46-5.92Zm0,0"/><path class="cls-1" d="M566.74,285a50.8,50.8,0,0,0,10.34,13.25,46.16,46.16,0,0,0,7.85,5.49,40.36,40.36,0,0,0,7.25,3.22,21.69,21.69,0,0,0,7,1.17c.6.12,2.12-.17,4.54-.88a19.61,19.61,0,0,0,5.23-3,54.85,54.85,0,0,0,4.68-4.28l1.13-1.14.54-.68a20.87,20.87,0,0,0-7.51-3.21q-4.28-1-16.77-.69h0A80.47,80.47,0,0,1,602,291.26a25.48,25.48,0,0,1,7.81-.29,38,38,0,0,1,9.13,2.46,62.34,62.34,0,0,0-7.29-8.36,21.45,21.45,0,0,0-2.75-2.09l-1.48-.84a13.39,13.39,0,0,0-3.18-1.14,18,18,0,0,0-7.41.1,49.28,49.28,0,0,0-6.08,1.59l-9.56,3.21-1.65.46a23.65,23.65,0,0,1-2.93.56q-4.35.79-9.82-1.95Zm0,0"/><path class="cls-1" d="M597.42,375.18a48.84,48.84,0,0,1-14.72,6.64,44.83,44.83,0,0,1-9.13,1.16,38.14,38.14,0,0,1-7.61-.51,21.07,21.07,0,0,1-6.46-2.13,13.55,13.55,0,0,1-3.48-2.78,18.83,18.83,0,0,1-3.08-4.92,50.2,50.2,0,0,1-2.07-5.72l-.46-1.47-.14-.83h0a19.79,19.79,0,0,1,7.82.63q4.11,1,14.56,6.91a76.25,76.25,0,0,0-8-7.39,24.21,24.21,0,0,0-6.52-3.74,36.2,36.2,0,0,0-8.85-2,59.37,59.37,0,0,1,9.94-3.84,20,20,0,0,1,3.27-.55l1.63-.06a13,13,0,0,1,3.21.46,17.35,17.35,0,0,1,6.26,3.4,45.66,45.66,0,0,1,4.45,4.08l6.7,7,1.19,1.14a25.55,25.55,0,0,0,2.25,1.78q3.34,2.63,9.22,2.73Zm0,0"/><path class="cls-1" d="M545.76,577.43h0q43.68,21.28,53.6,28.73l101.81,67.24q20.43,13.29,40.46,24.46a332.63,332.63,0,0,0,39.29,18.83l19,6.42c55.82,18.86,69.41.46,79.33-15.94,4.37-7.22,7.85-15,11.39-22.66a374.55,374.55,0,0,0,24.26-70.09h0c-.52.46-1,.94-1.55,1.38a121.77,121.77,0,0,1-31.16,18.81c-11.85,5-25.42,7.59-40.68,7.82-1.1,0-2.24.1-3.44.1-1,0-2,0-3-.08h0c-11.6-.56-27.4-4-47.24-10.75a343,343,0,0,1-34.46-13.82c-37.45-17.45-66.11-31.06-86.29-40.2-62.28-15.28-98.21-15.36-98.21-15.36a24.53,24.53,0,0,0-23.08,15.1Zm284,118.28h0l.42,0-.42,0Zm0,0"/><path class="cls-1" d="M441.23,528.55q-30.19-.06-75,1.61l-3.51.13q120.74,16.28,178.36,44.85l4.7,2.29,121.3.26h0q-20.22-9.16-28.94-12.62-46.53-18.37-67-22.4-30.3-8.28-81.55-12.25-5.85-.45-12-.85-14.28-1-36.35-1Zm0,0"/><path class="cls-1" d="M226.71,529.66q-6.48,0-13,.05l.4.13h3.09l25.13.06-25.12-.06h-3.1c119.06,13.56,211.94,81.07,240.71,99.06,25,15.63,47.13,33.7,67.58,52.66,11.45,10.61,38.36,38.86,81.75,83.89,20,20.77,33.14,31.06,36.88,33.77,15.56,11.24,30.2,20.44,44.79,26.45h0a128.5,128.5,0,0,0,32.54,8.8,113.68,113.68,0,0,0,14.31,1,86.57,86.57,0,0,0,41.12-9.8,71.7,71.7,0,0,0,16-11c18.24-17.19,31.48-30,40.48-37.8l0,0h0l1.67-1.43h0l-.43,0h0c-1.77.06-3.55.09-5.35.09-8.54,0-17.49-1.15-27-2.41a115,115,0,0,1-25.86-6.8h0C759.26,761,741.67,752.83,721,741a477.19,477.19,0,0,1-48.33-31.72c-82.9-61.94-132.35-98.21-149.1-107.81l-24.72-14.7q-9.09-5-18.11-9.48h0c-10.31-5.09-20.53-9.69-30.75-13.65-32.25-12.5-64.13-21.15-95.66-25.45a952.17,952.17,0,0,0-107.72-8.29q-10-.23-19.93-.24Zm0,0"/><path class="cls-1" d="M168.64,529.73l.31.19h0c176.92,93.56,217.53,284.15,320.27,354.65,12.35,8.47,30.75,14.65,55.41,18.51A68.22,68.22,0,0,0,559,904.32c37.34-.62,73.29-7.72,107.15-19-10.09-3.72-19-8.75-27.72-13.27-7-3.6-17.57-10.11-31-21.41h0c-7.84-6.61-16.91-14.46-26.68-24.1A431.7,431.7,0,0,1,546.91,789c-56.18-70.33-89.85-112.16-102-124.7-29.61-30.67-48.26-46.72-54.32-50.87-20.08-13.73-39.51-26.72-60.05-36.5-5.83-2.77-11.68-5.42-17.61-7.74a676.84,676.84,0,0,0-123.41-35.17L169,529.79h0l-.29-.07Zm0,0"/><path class="cls-1" d="M169.05,536.15h0a380.28,380.28,0,0,0,3.19,40.48c18.89,142.26,116.89,259.59,248.42,306.23-73-71-65.76-213-251.61-346.71Zm0,0"/><path class="cls-1" d="M841.34,407.14a153,153,0,0,1,1.82,15.78,151.17,151.17,0,0,1-.57,25.44L840.69,461a148.63,148.63,0,0,1-6.93,24.47c-3,8-7.07,15.38-11,22.95-2.24,4.39-9,14.47-22.14,29.06-5,5.54-11.06,9.91-16.71,14.78-2.93,2.52-11.86,9.18-28.68,17.14-24,11.36-48.92,15.09-73.93,13.11a160.71,160.71,0,0,1-35-6.85l-8.13-3h0q-19.93,16.41-34.92,15.21c-.46,0-.91-.08-1.36-.14h0L713.05,655l20.26,21.29c22.47-17.45,121.45-35.16,132.27-88.29l8.79-37c.6-4.33,2.12-11.38,2.55-15.79,3.71-37.84-22.49-81.73-32-116.29q-1.65-6-3.53-11.81Zm0,0"/></svg>