<svg id="Layer_1" data-name="Layer 1" xmlns="http://www.w3.org/2000/svg" viewBox="0 0 1080 1080"><defs><style>.cls-1{fill:#295c00;}.cls-2{fill:#77a501;}</style></defs><path class="cls-1" d="M600,193.46h0l-61.29,57.81q7.07-.36,14.24-.36a274.51,274.51,0,0,1,171,59.67h0A269.3,269.3,0,0,1,809.71,429c10.7,29.42,17.18,61.26,15.67,94.42-6.33,139-113.12,112.39-135.62,122.75-2.37-1.31,106.28,35.2,110.76,35.66,3.19.32,6.54.46,10,.46,13.05,0,27.67-1.91,40.28-2.86A335.05,335.05,0,0,0,882,576.82c.22-1.66.4-3.34.64-5,1.37-9.66,2.44-19.45,3-29.35.14-2.72.2-5.23.27-7.49.17-5.38.27-9.38.27-11.52a332.52,332.52,0,0,0-116.26-253h0l-.2-.17,0,0h0a331.87,331.87,0,0,0-160.72-75.42h0c-2.94-.5-5.91-1-8.88-1.38Zm154.18,128h0q3.91,3.86,7.68,7.86-3.76-4-7.68-7.86Zm15.27,7.86h0l-.06,8.3Zm59.14,114h0v0ZM885.06,535Zm0,0"/><path d="M769.44,337.69v0h0l-.06,8Zm0,0"/><path class="cls-1" d="M769.31,357.61l.56-87.23c-68.64-39.32-137.27-78.64-187.57-78.65-11.06,0-21.22,1.89-30.31,6.1-50.45,23.36-67.64,118-114.23,155.66S315.2,371.63,274.87,382.82s-45,53.06-49.65,94.92c5.86-18.41,11.72-36.82,20.13-52.36,8.12-15,18.61-27.31,57.3-27.3,1.44,0,2.91,0,4.42.05,21.34.49,50.65,4.45,80.16,4.46,29,0,58.21-3.81,80.2-18.5,44.36-29.63,59.4-103.5,105.4-121.22a75.08,75.08,0,0,1,27-4.52c45.06,0,102.68,29.7,133.86,50.39,37.91,25.16,36.76,37,35.62,48.87Zm0,0"/><path class="cls-1" d="M510.38,198.49h0a217.32,217.32,0,0,0-40.33,3.35,162.83,162.83,0,0,0-24.77,6.61c-63.37,15.07-115,81.61-115,81.61,26.07-17.64,46.11-30.12,60.31-37,14-6.78,22.55-9.93,25.2-10.68,5.62-1.58,11-3.19,16.43-4.17a89.59,89.59,0,0,1,16.12-1.43,124.05,124.05,0,0,1,20.24,1.7,167.46,167.46,0,0,1,19.88,4.67l3.36,1.88c9.51-18.28,28.56-41,36.1-46.08h0q-9.16-.47-17.58-.46Zm0,0"/><path class="cls-1" d="M322.59,394.48c-5.41,14.6-10.82,29.2-19.9,40.36s-21.82,18.87-34.56,26.58c11.69-13.49,23.38-27,29.68-38.88s7.19-22.18,8.09-32.47Zm0,0"/><path class="cls-1" d="M383.11,385.19c-17.28-13.06-34.56-26.12-49.85-32a67.34,67.34,0,0,0-24.85-4.4c-5.78,0-11.42.54-17.06,1.08,12.18,1.95,24.35,3.9,35.83,10.49s22.28,17.82,33.07,29.05Zm0,0"/><path class="cls-1" d="M511.55,296.35h0c-22.05-8.8-44.11-17.6-64.79-17.61a69.55,69.55,0,0,0-6.95.35c-22.66,2.33-43.44,16.77-64.23,31.21,17.52-6.7,35-13.39,53.08-13.38,1,0,2.11,0,3.17.07,19.16.86,38.93,9.66,58.7,18.47Zm0,0"/><path class="cls-1" d="M441.26,283.83c-11.51-3-23-6-31.12-10.18s-12.78-9.44-17.47-14.73c4.2,6.9,8.4,13.79,14.26,18.7s13.35,7.84,20.85,10.77Zm0,0"/><path class="cls-1" d="M401,237.42,383.8,250.86c-7.52,1.31-15,2.63-22.27,2.63a47.9,47.9,0,0,1-7-.48c-9.3-1.34-17.91-5.77-26.53-10.2,9,1.53,18,3.06,27.7,3.06,2.12,0,4.26-.07,6.44-.23,12.17-.9,25.5-4.56,38.83-8.22Zm0,0"/><path class="cls-1" d="M836.76,545.88C832.38,503.81,828,461.73,806,421.59s-61.68-78.32-106.2-86.93a112.59,112.59,0,0,0-21.43-2c-38.68,0-80.26,17.64-121.84,35.29,47.83-29.94,95.66-59.88,140-60.54H698c43.71,0,84,28.29,124.32,56.57Zm0,0"/><path class="cls-1" d="M688.75,314.52c-23.28-1-46.55-2.06-63.12-5.94S599.2,298,589.34,291.27c8.52,10.1,17,20.2,27,27.22s21.28,11,32.64,14.92Zm0,0"/><path class="cls-1" d="M475.86,346.33c-34.11,34-68.22,68.05-83.81,93.82s-12.66,43.27-9.74,60.78c.34-18.24.68-36.49,21.38-59.38s61.74-50.41,81.57-71.28S503.7,335.18,502.32,321Zm0,0"/><path class="cls-1" d="M572.15,252.92c-18.39,23.39-36.79,46.79-40.24,72.94s8.05,55.06,19.54,84c-8.44-30.46-16.88-60.92-6.65-87.5s39.14-49.3,68.05-72Zm0,0"/><path class="cls-1" d="M390.11,528.17a25.25,25.25,0,0,1-6.62-4.89,22.89,22.89,0,0,1-2.8-3.77A20.77,20.77,0,0,1,379,516a10.62,10.62,0,0,1-.67-3.41,7.14,7.14,0,0,1,.37-2.23,9.43,9.43,0,0,1,1.42-2.6,24.55,24.55,0,0,1,2-2.35l.54-.57.33-.27a10.2,10.2,0,0,1,1.67,3.64,37.63,37.63,0,0,1,.56,8.19,38.1,38.1,0,0,0,1.29-5.39,12.64,12.64,0,0,0,0-3.83,18.33,18.33,0,0,0-1.33-4.43h0a31,31,0,0,1,4.2,3.46,10.94,10.94,0,0,1,1.06,1.32l.42.71a6.59,6.59,0,0,1,.61,1.54,9,9,0,0,1,.05,3.64,25.46,25.46,0,0,1-.7,3l-1.45,4.73-.2.81a12.53,12.53,0,0,0-.23,1.44,7.66,7.66,0,0,0,1.08,4.79Zm0,0"/><path class="cls-1" d="M355.36,276.5a39.31,39.31,0,0,0,3.1,12.56,35.69,35.69,0,0,0,3.8,6.33,31.84,31.84,0,0,0,4.09,4.54,16.77,16.77,0,0,0,4.54,3,11,11,0,0,0,3.47.81,14.86,14.86,0,0,0,4.62-.49,41.09,41.09,0,0,0,4.63-1.53l1.16-.45.59-.31a15.87,15.87,0,0,0-4.27-4.61q-2.68-2.08-11.57-5.76h0a61.8,61.8,0,0,1,8.6,1.37,19.91,19.91,0,0,1,5.59,2.25,29.49,29.49,0,0,1,5.64,4.6,47.8,47.8,0,0,0-2.5-8.17,17.45,17.45,0,0,0-1.27-2.34l-.78-1a10.35,10.35,0,0,0-1.87-1.81,14,14,0,0,0-5.25-2.26,38.41,38.41,0,0,0-4.77-.79l-7.73-.74-1.3-.2a16.45,16.45,0,0,1-2.24-.53,12.07,12.07,0,0,1-6.29-4.45Zm0,0"/><path class="cls-2" d="M181.53,460.68A39.75,39.75,0,0,0,190,470.73a36.46,36.46,0,0,0,6.3,4.06,32.22,32.22,0,0,0,5.77,2.29,17,17,0,0,0,5.5.71,10.85,10.85,0,0,0,3.52-.82,15.61,15.61,0,0,0,4-2.53,42.83,42.83,0,0,0,3.53-3.48l.85-.93.4-.55h0a16.26,16.26,0,0,0-6-2.28q-3.37-.69-13.13,0a62.37,62.37,0,0,1,8.46-2.63,20.24,20.24,0,0,1,6.1-.47,29.79,29.79,0,0,1,7.21,1.65h0a47.34,47.34,0,0,0-5.95-6.31,16.49,16.49,0,0,0-2.22-1.56l-1.17-.61a11.39,11.39,0,0,0-2.52-.8,14.31,14.31,0,0,0-5.8.31,37.58,37.58,0,0,0-4.7,1.42l-7.38,2.8-1.28.41a17.81,17.81,0,0,1-2.27.53,12.31,12.31,0,0,1-7.74-1.23Zm0,0"/><path class="cls-1" d="M220.16,516.56a35.38,35.38,0,0,0,8.85-7.51,32.12,32.12,0,0,0,3.56-5.57,28.62,28.62,0,0,0,2-5.09,14.87,14.87,0,0,0,.61-4.86,9.59,9.59,0,0,0-.73-3.1,13.58,13.58,0,0,0-2.25-3.52,36,36,0,0,0-3.07-3.11l-.82-.74-.49-.35a14.33,14.33,0,0,0-2,5.27q-.6,3,0,11.57a54.73,54.73,0,0,1-2.34-7.45,17.72,17.72,0,0,1-.43-5.38,26,26,0,0,1,1.44-6.36h0a41.83,41.83,0,0,0-5.56,5.27,14.22,14.22,0,0,0-1.36,1.95l-.54,1a10.06,10.06,0,0,0-.7,2.22,12.51,12.51,0,0,0,.29,5.11,32.54,32.54,0,0,0,1.27,4.15l2.49,6.5.36,1.13a17.15,17.15,0,0,1,.47,2,10.82,10.82,0,0,1-1.07,6.83Zm0,0"/><path class="cls-2" d="M412.06,493.59a25.81,25.81,0,0,1-8,3.42,24,24,0,0,1-4.92.54,21.07,21.07,0,0,1-4.08-.36,11.23,11.23,0,0,1-3.45-1.2,7.6,7.6,0,0,1-1.84-1.53,10.27,10.27,0,0,1-1.61-2.67,28.91,28.91,0,0,1-1.05-3.1l-.23-.8-.07-.44a10.57,10.57,0,0,1,4.19.42,39.08,39.08,0,0,1,7.76,3.86h0a41.64,41.64,0,0,0-4.22-4.05,13.06,13.06,0,0,0-3.46-2.08,19.2,19.2,0,0,0-4.74-1.16h0a31.57,31.57,0,0,1,5.38-2,11,11,0,0,1,1.77-.27h.87a7.25,7.25,0,0,1,1.72.27,9.42,9.42,0,0,1,3.33,1.9,22.31,22.31,0,0,1,2.35,2.23l3.53,3.83.63.62a13.3,13.3,0,0,0,1.19,1,8.1,8.1,0,0,0,4.92,1.56Zm0,0"/><path class="cls-2" d="M295.42,236.2a29.48,29.48,0,0,0,5.93,7.8,27.85,27.85,0,0,0,4.54,3.26,24.35,24.35,0,0,0,4.21,1.92,12.51,12.51,0,0,0,4.06.73,8,8,0,0,0,2.66-.47,11.44,11.44,0,0,0,3.07-1.74,28.54,28.54,0,0,0,2.75-2.45l.67-.66.32-.4a12.32,12.32,0,0,0-4.36-1.92c-1.65-.42-4.91-.6-9.76-.52h0a46.57,46.57,0,0,1,6.39-1.63,14.62,14.62,0,0,1,4.56-.12,22.34,22.34,0,0,1,5.3,1.5,36.57,36.57,0,0,0-4.19-4.93,14.2,14.2,0,0,0-1.59-1.24l-.85-.49a7.49,7.49,0,0,0-1.85-.69,10.63,10.63,0,0,0-4.32,0,29.65,29.65,0,0,0-3.56.89l-5.59,1.81-1,.25a14.21,14.21,0,0,1-1.71.31,9.08,9.08,0,0,1-5.71-1.21Zm0,0"/><path class="cls-1" d="M190.72,406.09a49.85,49.85,0,0,0,13.87,8.79,45.14,45.14,0,0,0,9,2.46,39.21,39.21,0,0,0,7.73.57,20.8,20.8,0,0,0,6.81-1.22c.6-.08,1.89-.85,3.89-2.3a19,19,0,0,0,3.81-4.5,49.79,49.79,0,0,0,2.9-5.47l.67-1.42.26-.81h0a20.39,20.39,0,0,0-8-.48q-4.28.45-15.64,4.88h0a76.64,76.64,0,0,1,9.09-6.3,25.13,25.13,0,0,1,7.09-2.84,37,37,0,0,1,9.2-.73,59.27,59.27,0,0,0-9.46-5.3,21.69,21.69,0,0,0-3.21-1l-1.63-.29a14.09,14.09,0,0,0-3.31,0,17.6,17.6,0,0,0-6.78,2.53,48.43,48.43,0,0,0-5.07,3.47l-7.73,6.1-1.37,1a21.8,21.8,0,0,1-2.52,1.48q-3.73,2.16-9.67,1.44Zm0,0"/><path class="cls-1" d="M304.33,336.32a48.81,48.81,0,0,1-2.58-15.82,44.2,44.2,0,0,1,1.24-9.06,39.46,39.46,0,0,1,2.45-7.16,20.36,20.36,0,0,1,3.71-5.65A13.32,13.32,0,0,1,312.7,296a18.77,18.77,0,0,1,5.51-1.69,49.18,49.18,0,0,1,6-.51l1.53-.06.83.08h0a19.88,19.88,0,0,1-2.62,7.33q-2,3.68-10.37,12.18a75.6,75.6,0,0,0,9.13-5.75,24.2,24.2,0,0,0,5.27-5.28,36,36,0,0,0,4.19-8h0a59.18,59.18,0,0,1,1.13,10.53,19.6,19.6,0,0,1-.32,3.28l-.36,1.57a13.8,13.8,0,0,1-1.26,3,17.33,17.33,0,0,1-4.88,5.13,48.26,48.26,0,0,1-5.05,3.22L313,325.63l-1.4.86a21.81,21.81,0,0,0-2.28,1.69q-3.37,2.54-5,8.14Zm0,0"/><path class="cls-2" d="M346.33,342.18a39.09,39.09,0,0,1,.92-12.81,36.12,36.12,0,0,1,2.65-6.83,31,31,0,0,1,3.24-5.13,16.51,16.51,0,0,1,3.94-3.72,10.22,10.22,0,0,1,3.25-1.38,14.78,14.78,0,0,1,4.61-.3,40.49,40.49,0,0,1,4.79.72l1.21.24.63.21a16,16,0,0,1-3.41,5.23q-2.27,2.49-10.34,7.57A62,62,0,0,0,366,323.2a19.6,19.6,0,0,0,5.08-3.15,28.69,28.69,0,0,0,4.75-5.45,47.71,47.71,0,0,1-1.07,8.42,16.7,16.7,0,0,1-.85,2.5l-.58,1.16a11,11,0,0,1-1.53,2.08,14,14,0,0,1-4.76,3.09,37,37,0,0,1-4.53,1.58l-7.44,2-1.25.41a18.23,18.23,0,0,0-2.09.89,12,12,0,0,0-5.41,5.42Zm0,0"/><path class="cls-2" d="M509.13,418A42.82,42.82,0,0,0,523,415.72a39,39,0,0,0,7.17-3.57,33.91,33.91,0,0,0,5.26-4,18,18,0,0,0,3.66-4.66,11.51,11.51,0,0,0,1.17-3.68,16.18,16.18,0,0,0-.13-5,44.22,44.22,0,0,0-1.26-5.14l-.39-1.29-.29-.67h0a17.3,17.3,0,0,0-5.35,4.23q-2.49,2.73-7.21,12h0a66.46,66.46,0,0,1,2.21-9.2,21.63,21.63,0,0,1,2.91-5.85,31.76,31.76,0,0,1,5.46-5.72,52.6,52.6,0,0,0-9.06,2,17.85,17.85,0,0,0-2.63,1.18l-1.2.75a11.75,11.75,0,0,0-2.12,1.87,15.25,15.25,0,0,0-2.89,5.49A42.25,42.25,0,0,0,517,399.5l-1.46,8.31-.33,1.39a18.57,18.57,0,0,1-.76,2.38q-1.15,3.51-5.36,6.42Zm0,0"/><path class="cls-1" d="M579.51,471.8a61.5,61.5,0,0,1-17.8-9.55,55.89,55.89,0,0,1-8.1-8.19,48,48,0,0,1-5.28-7.94,26,26,0,0,1-2.82-8q-.39-1,.12-5.56a23.4,23.4,0,0,1,2.53-6.81,64.62,64.62,0,0,1,4.1-6.41l1.12-1.57.71-.77h0a25,25,0,0,1,5.32,8.25q2.12,4.86,4.23,19.72h0q1.41-10.34,1.26-13.54a30.88,30.88,0,0,0-1.24-9.32q-.92-3.6-4.78-10.31a73.15,73.15,0,0,1,11.39,6.94,25.74,25.74,0,0,1,3.05,2.83l1.28,1.58a16.8,16.8,0,0,1,2,3.53,21.9,21.9,0,0,1,1.38,8.8,57.64,57.64,0,0,1-.65,7.53l-1.86,12-.21,2.05a27.34,27.34,0,0,0-.06,3.58q-.06,5.32,4.3,11.24Zm0,0"/><path class="cls-2" d="M252.79,374.83a42,42,0,0,1,4.42-13.05,37.82,37.82,0,0,1,4.6-6.37,33.05,33.05,0,0,1,4.75-4.45,17.94,17.94,0,0,1,5.1-2.8,11.24,11.24,0,0,1,3.75-.55,16.29,16.29,0,0,1,4.87.94,42.73,42.73,0,0,1,4.77,2l1.19.58.6.39a17.12,17.12,0,0,1-5,4.51q-3,2-12.79,5.06h0a64.63,64.63,0,0,0,9.26-.68,21,21,0,0,0,6.13-1.88,31.1,31.1,0,0,0,6.4-4.37,49.88,49.88,0,0,1-3.39,8.44,16.17,16.17,0,0,1-1.56,2.37l-.91,1a11.9,11.9,0,0,1-2.16,1.75,14.78,14.78,0,0,1-5.77,1.92,40.82,40.82,0,0,1-5.13.41l-8.27.09-1.41.09a19.14,19.14,0,0,0-2.42.36,12.87,12.87,0,0,0-7.07,4.16Zm0,0"/><path class="cls-1" d="M335.56,424.89A26.1,26.1,0,0,0,340,432.3a23.87,23.87,0,0,0,3.68,3.29,20.43,20.43,0,0,0,3.51,2.09,11,11,0,0,0,3.5,1,6.91,6.91,0,0,0,2.38-.17,10.12,10.12,0,0,0,2.86-1.22,27.5,27.5,0,0,0,2.65-1.9l.65-.51.32-.32a10.62,10.62,0,0,0-3.65-2.1,38.72,38.72,0,0,0-8.52-1.38h0a42.45,42.45,0,0,1,5.77-.83,12.94,12.94,0,0,1,4,.34,19,19,0,0,1,4.51,1.82,31.1,31.1,0,0,0-3.21-4.73,11.49,11.49,0,0,0-1.28-1.24l-.7-.52a7.26,7.26,0,0,0-1.55-.78,9.5,9.5,0,0,0-3.8-.4,23.93,23.93,0,0,0-3.2.44l-5.09,1.05-.87.14a12.39,12.39,0,0,1-1.54.1,8.1,8.1,0,0,1-4.9-1.6Zm0,0"/><path class="cls-1" d="M244.06,434.48a35.45,35.45,0,0,0,6.6,9.66,32.64,32.64,0,0,0,5.21,4.17,28.61,28.61,0,0,0,4.9,2.55,15.14,15.14,0,0,0,4.81,1.13,9.77,9.77,0,0,0,3.19-.41,13.31,13.31,0,0,0,3.77-1.88A36.66,36.66,0,0,0,276,447l.84-.75.4-.45a14.38,14.38,0,0,0-5.08-2.56q-2.92-.92-11.62-1.22h0a54.45,54.45,0,0,1,7.72-1.56,18,18,0,0,1,5.45.14,26.14,26.14,0,0,1,6.23,2.11h0a41.76,41.76,0,0,0-4.7-6.14,14.21,14.21,0,0,0-1.82-1.58l-1-.64a9.88,9.88,0,0,0-2.16-.94,12.71,12.71,0,0,0-5.16-.26,36.16,36.16,0,0,0-4.29.84L254,435.76l-1.17.25a17.3,17.3,0,0,1-2.06.26,11,11,0,0,1-6.74-1.79Zm0,0"/><path class="cls-1" d="M484.84,441.88a54.39,54.39,0,0,1-14-11.16,49.49,49.49,0,0,1-5.76-8.44,42.44,42.44,0,0,1-3.34-7.77,22.92,22.92,0,0,1-1.18-7.46q-.18-1,1-4.83a20.8,20.8,0,0,1,3.29-5.53,54.51,54.51,0,0,1,4.6-4.94l1.23-1.2.74-.56a22.22,22.22,0,0,1,3.33,8q1.06,4.58.54,17.87h0a85.75,85.75,0,0,0,3.25-11.61,27.08,27.08,0,0,0,.4-8.33,39.88,39.88,0,0,0-2.52-9.76h0a65.74,65.74,0,0,1,8.83,7.87,22.77,22.77,0,0,1,2.21,3l.87,1.58a14.72,14.72,0,0,1,1.18,3.4,19.28,19.28,0,0,1-.19,7.9,52.54,52.54,0,0,1-1.77,6.46L484,426.52l-.51,1.76a25.36,25.36,0,0,0-.63,3.12q-.89,4.62,2,10.48Zm0,0"/><path class="cls-1" d="M455.32,239.07a47.2,47.2,0,0,0-1,15.58,42.72,42.72,0,0,0,2.07,8.66,38.3,38.3,0,0,0,3.06,6.71,20.27,20.27,0,0,0,4.13,5.12,12.82,12.82,0,0,0,3.7,2.19,18.37,18.37,0,0,0,5.5,1.12,50.4,50.4,0,0,0,5.88-.08l1.5-.1.79-.15a19.32,19.32,0,0,0-3.24-6.85q-2.33-3.37-11.22-10.82a75.49,75.49,0,0,1,9.41,4.7,24,24,0,0,1,5.61,4.62,35.22,35.22,0,0,1,4.82,7.33,57.47,57.47,0,0,0,.09-10.31,20.41,20.41,0,0,0-.62-3.15l-.51-1.48a13.69,13.69,0,0,0-1.5-2.76,17,17,0,0,0-5.22-4.5,45,45,0,0,0-5.2-2.64l-8.63-3.66-1.43-.7a22,22,0,0,1-2.38-1.42q-3.53-2.13-5.62-7.41Zm0,0"/><path class="cls-2" d="M407.93,310.23a52.71,52.71,0,0,0,10,14.19,47.86,47.86,0,0,0,7.81,6.07,41.87,41.87,0,0,0,7.32,3.69,22.37,22.37,0,0,0,7.14,1.57c.62.15,2.19-.07,4.73-.67a20.13,20.13,0,0,0,5.54-2.86,54,54,0,0,0,5.05-4.16l1.23-1.12.58-.68a21.4,21.4,0,0,0-7.58-3.69q-4.35-1.29-17.24-1.57h0a80.85,80.85,0,0,1,11.42-2.47,26.54,26.54,0,0,1,8.07.1,38.87,38.87,0,0,1,9.28,3h0a63.71,63.71,0,0,0-7.09-9,23.43,23.43,0,0,0-2.73-2.3L450,309.4a14.42,14.42,0,0,0-3.21-1.34,18.81,18.81,0,0,0-7.65-.28,50.12,50.12,0,0,0-6.35,1.34l-10,2.81-1.73.39a25.31,25.31,0,0,1-3.05.43q-4.53.58-10-2.52Zm0,0"/><path class="cls-1" d="M656.81,386.64a68.21,68.21,0,0,1,3.67-22.25,62,62,0,0,1,5.72-11.51,54.91,54.91,0,0,1,6.48-8.45,28.94,28.94,0,0,1,7.48-5.87q.95-.8,5.91-1.89a26.27,26.27,0,0,1,8.1.22,70.42,70.42,0,0,1,8.26,2l2.07.62,1.07.46h0a27.82,27.82,0,0,1-6.79,8.6q-4.37,4-19.3,11.58h0q11.43-2.24,14.77-3.55a34.67,34.67,0,0,0,9.39-4.68q3.48-2.26,9.17-8.77h0a83.07,83.07,0,0,1-3.22,14.54,28.49,28.49,0,0,1-1.9,4.24l-1.19,1.92a19.36,19.36,0,0,1-3,3.4,24.4,24.4,0,0,1-8.8,4.64,67,67,0,0,1-8.18,2l-13.33,2.36-2.24.52a31.7,31.7,0,0,0-3.81,1.23q-5.64,1.86-10.32,8.6Zm0,0"/><path class="cls-2" d="M617.83,277.23a50.68,50.68,0,0,1,16.51-2.57,45.91,45.91,0,0,1,9.43,1.36,40.73,40.73,0,0,1,7.45,2.61,21.69,21.69,0,0,1,5.86,3.9,14,14,0,0,1,2.7,3.73A19.7,19.7,0,0,1,661.5,292a51.34,51.34,0,0,1,.49,6.27l0,1.6-.08.86h0a20.39,20.39,0,0,1-7.63-2.79q-3.81-2.15-12.62-10.9a80.41,80.41,0,0,0,5.92,9.57,25.64,25.64,0,0,0,5.47,5.53,37.52,37.52,0,0,0,8.29,4.43h0a61.35,61.35,0,0,1-11,1.1,21.31,21.31,0,0,1-3.42-.36l-1.63-.4a14,14,0,0,1-3.09-1.33,17.92,17.92,0,0,1-5.3-5.12,47.81,47.81,0,0,1-3.32-5.29l-4.75-8.84-.88-1.46a24.17,24.17,0,0,0-1.75-2.4q-2.61-3.53-8.44-5.26Zm0,0"/><path class="cls-1" d="M564.74,315.7A45.5,45.5,0,0,0,574,327.5a41.24,41.24,0,0,0,7,4.89,36.66,36.66,0,0,0,6.49,2.86,19.3,19.3,0,0,0,6.24,1,12.18,12.18,0,0,0,4-.79,17.67,17.67,0,0,0,4.66-2.71A46.33,46.33,0,0,0,606.6,329l1-1,.47-.61h0a18.53,18.53,0,0,0-6.71-2.85q-3.81-.93-15-.59h0a72.77,72.77,0,0,1,9.75-2.64,22.92,22.92,0,0,1,7-.27,33.31,33.31,0,0,1,8.15,2.18,54.75,54.75,0,0,0-6.53-7.45,19.61,19.61,0,0,0-2.45-1.87L601,313.1a12.47,12.47,0,0,0-2.84-1,16.09,16.09,0,0,0-6.61.11,42.61,42.61,0,0,0-5.43,1.43l-8.52,2.88-1.48.42a23.2,23.2,0,0,1-2.61.5q-3.88.7-8.77-1.72Zm0,0"/><path class="cls-1" d="M413.27,418.47h0c-8.3,5.62-16.6,11.24-25,13.69a47.38,47.38,0,0,1-13.48,1.72c-4,0-8-.33-12-.65,6.06,2,12.13,3.93,18.6,3.93.41,0,.81,0,1.22,0,6.94-.27,14.37-2.89,21.8-5.51Zm0,0"/><path class="cls-2" d="M592.27,396.15a43.59,43.59,0,0,1-13.12,6,40,40,0,0,1-8.15,1,35.3,35.3,0,0,1-6.79-.44,18.73,18.73,0,0,1-5.77-1.89,12,12,0,0,1-3.11-2.47,17,17,0,0,1-2.76-4.39,43.38,43.38,0,0,1-1.85-5.1l-.41-1.32-.13-.73a17.79,17.79,0,0,1,7,.55q3.66.92,13,6.15h0a70.48,70.48,0,0,0-7.13-6.58,21.86,21.86,0,0,0-5.82-3.33,32.45,32.45,0,0,0-7.91-1.76,53.34,53.34,0,0,1,8.87-3.45,18.58,18.58,0,0,1,2.92-.5l1.45,0a11.74,11.74,0,0,1,2.87.39,15.41,15.41,0,0,1,5.59,3,41.07,41.07,0,0,1,4,3.63l6,6.24,1.08,1a19.8,19.8,0,0,0,2,1.59c2,1.55,4.74,2.36,8.23,2.42Zm0,0"/><path class="cls-2" d="M352,494.15a26.46,26.46,0,0,0,8,3.42,24.73,24.73,0,0,0,4.91.54,21.74,21.74,0,0,0,4.08-.35,11.21,11.21,0,0,0,3.46-1.21,7.34,7.34,0,0,0,1.84-1.53,10.27,10.27,0,0,0,1.61-2.67,25.5,25.5,0,0,0,1.05-3.09l.23-.8.07-.45a11,11,0,0,0-4.19.42,39.67,39.67,0,0,0-7.76,3.86h0a41.64,41.64,0,0,1,4.22-4.05,13.06,13.06,0,0,1,3.46-2.08,19.54,19.54,0,0,1,4.74-1.15,31.63,31.63,0,0,0-5.38-2,10.88,10.88,0,0,0-1.76-.27h-.87A6.8,6.8,0,0,0,368,483a9.35,9.35,0,0,0-3.33,1.88,27.16,27.16,0,0,0-2.35,2.24L358.76,491l-.63.62a12,12,0,0,1-1.19,1,8.11,8.11,0,0,1-4.93,1.56Zm0,0"/><path class="cls-2" d="M309.6,475.51a30.17,30.17,0,0,1-9.92-1.14,28.28,28.28,0,0,1-5.22-2.28,24.63,24.63,0,0,1-3.87-2.69,12.86,12.86,0,0,1-2.77-3.18,8.75,8.75,0,0,1-1-2.58,11.91,11.91,0,0,1-.08-3.58,30.55,30.55,0,0,1,.72-3.7l.23-.93.18-.48a12.44,12.44,0,0,1,3.95,2.81q1.86,1.85,5.54,8.29a46,46,0,0,0-1.89-6.45,15.54,15.54,0,0,0-2.27-4.06,22.66,22.66,0,0,0-4.08-3.86h0a37.49,37.49,0,0,1,6.5,1.12,13.39,13.39,0,0,1,1.92.74l.88.49a8.13,8.13,0,0,1,1.56,1.26,10.68,10.68,0,0,1,2.24,3.79,28.65,28.65,0,0,1,1.08,3.58l1.33,5.84.28,1a14.21,14.21,0,0,0,.62,1.66,9.34,9.34,0,0,0,4,4.38Zm0,0"/><path class="cls-2" d="M330.14,318.79a31.81,31.81,0,0,0-5.29,9.09,29.16,29.16,0,0,0-1.37,5.84,25.23,25.23,0,0,0-.17,5,13.63,13.63,0,0,0,.94,4.33,8.64,8.64,0,0,0,1.57,2.44,12.45,12.45,0,0,0,3,2.33,33.45,33.45,0,0,0,3.56,1.72l.93.4.53.14a13,13,0,0,0,.11-5.1q-.39-2.73-3.5-9.9a50.33,50.33,0,0,1,4.25,5.66,16,16,0,0,1,2,4.48,23.18,23.18,0,0,1,.69,5.87,38.49,38.49,0,0,0,3.17-6.18,13.53,13.53,0,0,0,.57-2.09l.14-1.05a8.79,8.79,0,0,0-.07-2.11,11.38,11.38,0,0,0-1.79-4.29,31.69,31.69,0,0,0-2.34-3.16l-4.09-4.8-.65-.86a14.11,14.11,0,0,1-1-1.57,9.8,9.8,0,0,1-1.15-6.16Zm0,0"/><path class="cls-1" d="M294.17,377.44a34.67,34.67,0,0,1,5.34-10.08,31.4,31.4,0,0,1,4.59-4.6,28.47,28.47,0,0,1,4.47-3,14.63,14.63,0,0,1,4.53-1.61,9.35,9.35,0,0,1,3.14.05,13.52,13.52,0,0,1,3.85,1.4,37.33,37.33,0,0,1,3.63,2.3l.89.63.44.4h0a14,14,0,0,1-4.64,3q-2.73,1.21-11.11,2.45a53.19,53.19,0,0,0,7.65.67,17.36,17.36,0,0,0,5.25-.73A25.66,25.66,0,0,0,328,365.6h0a42,42,0,0,1-3.88,6.46,16.36,16.36,0,0,1-1.59,1.72l-.89.73a9.56,9.56,0,0,1-2,1.15,12.49,12.49,0,0,1-5,.81,33.61,33.61,0,0,1-4.25-.35l-6.77-1-1.16-.11a17.37,17.37,0,0,0-2,0,10.69,10.69,0,0,0-6.33,2.47Zm0,0"/><path class="cls-1" d="M398.23,338a32,32,0,0,1-8.5-6.19,29.41,29.41,0,0,1-3.6-4.79,26.2,26.2,0,0,1-2.16-4.47,13.42,13.42,0,0,1-.88-4.34,8.59,8.59,0,0,1,.45-2.86,12.08,12.08,0,0,1,1.79-3.33,32.51,32.51,0,0,1,2.56-3l.7-.73.41-.35a12.87,12.87,0,0,1,2.16,4.63q.75,2.65.79,10.46a50.44,50.44,0,0,0,1.61-6.89,16.1,16.1,0,0,0,0-4.9,23.22,23.22,0,0,0-1.73-5.65,38.26,38.26,0,0,1,5.39,4.39,14.19,14.19,0,0,1,1.36,1.67l.56.9a9.4,9.4,0,0,1,.78,2,11.17,11.17,0,0,1,.09,4.63,32,32,0,0,1-.87,3.84l-1.8,6-.26,1a16.07,16.07,0,0,0-.28,1.85,9.82,9.82,0,0,0,1.42,6.1Zm0,0"/><path class="cls-2" d="M498.15,139.69a77,77,0,0,0,4.62,24.83q3.83,8.88,6.67,12.77a61.37,61.37,0,0,0,7.46,9.31,32.49,32.49,0,0,0,8.51,6.4q1.08.87,6.67,2a29.53,29.53,0,0,0,9.07-.43,77.25,77.25,0,0,0,9.19-2.46l2.31-.73,1.19-.55a31.08,31.08,0,0,0-7.81-9.47q-5-4.36-21.88-12.53h0q12.86,2.25,16.62,3.64a38.72,38.72,0,0,1,10.63,5q3.95,2.45,10.47,9.6a92.14,92.14,0,0,0-3.94-16.21,33.22,33.22,0,0,0-2.22-4.7L554.32,164a21.34,21.34,0,0,0-3.45-3.73,27.27,27.27,0,0,0-10-5,72.48,72.48,0,0,0-9.21-2.08l-15-2.34-2.52-.53a33.58,33.58,0,0,1-4.3-1.28q-6.36-2-11.75-9.4Zm0,0"/><path d="M270.81,361.07l-1.72.06h0l1.72-.06Zm0,0"/><path d="M332.19,294.32h0Zm0,0"/><path d="M227.83,482.71a4,4,0,0,0-.2.35h0l.2-.35h0l.49.35-.49-.35Zm0,0"/><path class="cls-2" d="M243,479.55a27.89,27.89,0,0,0,9.07,1.16,25.4,25.4,0,0,0,5.13-.89,21.14,21.14,0,0,0,4-1.54,11.8,11.8,0,0,0,3.15-2.22,7.46,7.46,0,0,0,1.42-2.07,10.68,10.68,0,0,0,.85-3.18,27.63,27.63,0,0,0,.18-3.43v-.88l-.06-.47h0a11.4,11.4,0,0,0-4.13,1.64,41.59,41.59,0,0,0-6.73,6.15A43.89,43.89,0,0,1,259,468.5a14.2,14.2,0,0,1,2.91-3.11,20.75,20.75,0,0,1,4.46-2.54h0a33,33,0,0,0-6-.43,11.26,11.26,0,0,0-1.86.24l-.89.24a7.68,7.68,0,0,0-1.67.78,9.91,9.91,0,0,0-2.82,2.87,26.06,26.06,0,0,0-1.74,2.95L249,474.4l-.46.81a14.13,14.13,0,0,1-.92,1.34,8.57,8.57,0,0,1-4.54,3Zm0,0"/><path class="cls-2" d="M330.13,318.8h0a32.09,32.09,0,0,0-5.28,9.08,29.16,29.16,0,0,0-1.37,5.84,25.23,25.23,0,0,0-.17,5,13.32,13.32,0,0,0,.18,1.59q5.08-6,10.5-11.68l-1-1.22-.65-.86a14.11,14.11,0,0,1-1-1.57,9.85,9.85,0,0,1-1.15-6.15Zm0,0"/><path d="M401,237.42Zm0,0"/><path class="cls-1" d="M546.51,576.73h0q39,18.93,47.88,25.55l91,59.85Q703.63,674,721.51,683.9a298.56,298.56,0,0,0,35.1,16.73l17,5.7c49.85,16.74,61.95.3,70.78-14.36a205.43,205.43,0,0,0,10.13-20.24A335.34,335.34,0,0,0,876,609.14h0c-.46.41-.91.83-1.38,1.23a108.5,108.5,0,0,1-27.78,16.84c-10.57,4.52-22.67,6.82-36.3,7-1,0-2,.1-3.06.1-.86,0-1.75,0-2.68-.06h0c-10.36-.49-24.47-3.53-42.19-9.52a306,306,0,0,1-30.77-12.27c-33.45-15.51-59.06-27.62-77.08-35.74-55.61-13.53-87.67-13.54-87.67-13.54a21.9,21.9,0,0,0-20.57,13.51h0ZM800.15,681.82h0a3.7,3.7,0,0,1,.37,0h0l-.37,0Zm0,0"/><path class="cls-1" d="M453.14,533.29q-27,0-66.95,1.56l-3.13.12q107.78,14.32,159.25,39.73l4.2,2,108.25,0q-18.06-8.14-25.84-11.21-41.56-16.32-59.87-19.88-27-7.33-72.79-10.79h0c-3.47-.27-7-.51-10.67-.74q-12.74-.85-32.44-.85Zm0,0"/><path class="cls-2" d="M261.69,534.63c-3.85,0-7.71,0-11.56.08l.35.1h0c106.27,11.9,189.27,72,215,88,22.34,13.91,42.11,30,60.4,46.89,10.24,9.45,34.3,34.61,73.1,74.72,17.89,18.51,29.63,27.67,33,30.08,13.9,10,27,18.19,40,23.53h0A114.87,114.87,0,0,0,701,805.85a100.1,100.1,0,0,0,12.77.89,77.22,77.22,0,0,0,36.68-8.81,63.76,63.76,0,0,0,14.24-9.84c16.25-15.37,28-26.86,36.06-33.8l0,0h0c.51-.44,1-.87,1.48-1.27h-.4c-1.57.06-3.17.09-4.77.09-7.63,0-15.61-1-24.09-2.11a103.27,103.27,0,0,1-23.09-6h0a336,336,0,0,1-46.73-22.55A425.23,425.23,0,0,1,660,694.19c-74.09-55.14-118.28-87.43-133.25-96l-22.09-13.08q-8.12-4.47-16.17-8.43c-9.21-4.53-18.34-8.62-27.47-12.13-28.81-11.1-57.27-18.77-85.42-22.56a850.5,850.5,0,0,0-96.14-7.21h0q-8.91-.18-17.79-.19Zm0,0"/><path class="cls-1" d="M209.87,534.8h0l.27.16h0c158.05,83.21,194.62,253.23,286.42,316,11,7.54,27.47,13,49.48,16.43a61.1,61.1,0,0,0,12.85,1.08c33.32-.61,65.4-7,95.59-17.09-9-3.31-17-7.77-24.76-11.79-6.21-3.2-15.7-9-27.68-19.06h0c-7-5.88-15.12-12.87-23.85-21.47a384.8,384.8,0,0,1-30.29-33.45c-50.26-62.67-80.38-99.94-91.22-111.12-26.47-27.32-43.14-41.61-48.56-45.3-17.94-12.22-35.3-23.79-53.65-32.47-5.21-2.47-10.43-4.82-15.73-6.89a604.56,604.56,0,0,0-110.19-31.18l-18.4-3.77h0l-.26-.05Zm0,0"/><path class="cls-2" d="M210.25,540.52h0a338.49,338.49,0,0,0,2.91,36.12c17.1,126.92,104.76,231.47,222.21,272.87h0c-65.26-63.2-59-189.93-225.12-309Zm0,0"/><path class="cls-1" d="M810,424.27h0a134.38,134.38,0,0,1,1.18,36.78l-1.66,11.23a134.66,134.66,0,0,1-6.15,21.86c-2.67,7.11-6.29,13.74-9.74,20.5-2,3.92-8,12.93-19.71,26-4.45,4.94-9.85,8.86-14.88,13.21-2.61,2.25-10.57,8.21-25.57,15.35-21.39,10.17-43.63,13.54-66,11.81a143.23,143.23,0,0,1-31.21-6l-7.26-2.63h0Q611.31,587,597.91,585.94c-.41,0-.81-.07-1.21-.13h0l99.24,59.87,18.12,19c20-15.61,108.33-31.58,117.9-79l7.78-33c.52-3.86,1.87-10.15,2.25-14.09,3.25-33.78-20.2-72.9-28.79-103.73q-1.49-5.31-3.17-10.53Zm0,0"/></svg>